<mxfile host="app.diagrams.net" modified="2023-09-11T06:08:52.209Z" agent="Mozilla/5.0 (Linux; Android 10; K) AppleWebKit/537.36 (KHTML, like Gecko) Chrome/116.0.0.0 Mobile Safari/537.36" version="21.7.4" etag="TLiWB1klR_VvmU88kcvn" type="github">
  <diagram name="Strona-1" id="4FUulCzuDZkQV6UezxEL">
    <mxGraphModel>
      <root>
        <mxCell id="0" />
        <mxCell id="1" parent="0" />
      </root>
    </mxGraphModel>
  </diagram>
</mxfile>
